<?xml version="1.0" encoding="utf-8"?>
<!-- Generator: Adobe Illustrator 25.4.1, SVG Export Plug-In . SVG Version: 6.00 Build 0)  -->
<svg version="1.1" xmlns="http://www.w3.org/2000/svg" xmlns:xlink="http://www.w3.org/1999/xlink" x="0px" y="0px"
	 viewBox="0 0 1080 613" style="enable-background:new 0 0 1080 613;" xml:space="preserve">
<style type="text/css">
	.st0{display:none;}
	.st1{display:inline;}
	.st2{fill:#FFFFFF;}
</style>
<g id="GUIDES">
</g>
<g id="ESS_x5F_White">
	<g id="_x5B_black-bg_x5D_" class="st0">
		<rect x="0" class="st1" width="1080" height="613"/>
	</g>
	<g id="_x5B_E_M_B_A_R_K_x5D__00000162337930459665491390000010135940811750837164_">
		<path id="XMLID_00000169523638857400421530000011656545884294746253_" class="st2" d="M931.85,379.45
			c-0.21-2.82,1.79-5.35,4.83-5.57l19.07-1.35c2.82-0.2,5.37,2.01,5.57,4.83l4.14,58.52l50.27-65.41c0.78-1.15,2.01-2.32,3.96-2.46
			l21.67-1.53c4.12-0.3,6.6,4.11,4.02,7.55l-52.08,67.71l65.82,68.32c2.36,2.67,0.97,7.55-3.37,7.86l-23.62,1.67
			c-2.17,0.15-3.54-0.62-4.02-1.24l-61.49-65.8l4.67,66.11c0.2,2.82-2.02,5.37-4.84,5.56l-19.07,1.35
			c-3.03,0.21-5.36-2.02-5.57-4.84L931.85,379.45z"/>
		<path id="XMLID_00000043434023010669688980000012119985193087334806_" class="st2" d="M754.96,390.87
			c-0.15-2.17,1.45-4.24,3.83-4.41l61.99-4.38c26.01-1.83,48.72,17.47,50.53,43.26c1.41,19.94-10.66,37.13-28.98,46.04l33.57,52.96
			c1.72,2.71,0.45,6.29-3.24,6.55l-22.75,1.6c-1.96,0.13-3.11-0.87-3.61-1.71l-32.88-55.4l-24.05,1.7l3.89,55.27
			c0.15,2.17-1.65,4.25-3.83,4.41l-19.93,1.4c-2.38,0.17-4.26-1.66-4.42-3.82L754.96,390.87z M823.27,451.39
			c11.49-0.81,20.76-11.48,19.9-23.62c-0.8-11.49-11.46-20.32-22.94-19.51l-35.33,2.49l3.05,43.13L823.27,451.39z"/>
		<path id="XMLID_00000103987264430212035530000010106475800659880630_" class="st2" d="M567.56,546.77l57.1-150.62
			c0.55-1.34,1.57-2.51,3.52-2.64l2.17-0.15c2.18-0.15,3.11,0.87,3.86,2.13l77.04,141.15c1.5,2.72-0.03,5.67-3.28,5.9l-18.86,1.33
			c-3.25,0.23-4.86-0.97-6.59-3.89l-12.27-22.65l-64.81,4.57l-8.97,24.16c-0.72,2.22-2.51,4.53-5.98,4.78l-18.85,1.33
			C568.39,552.37,566.46,549.68,567.56,546.77z M657.92,494l-25.03-46.15l-0.65,0.04l-17.88,49.18L657.92,494z"/>
		<path id="XMLID_00000139255580097986808310000002782987823507233448_" class="st2" d="M410.81,415.09
			c-0.15-2.17,1.45-4.24,3.83-4.41l49.63-3.51c25.8-1.82,46.96,14.11,48.56,36.87c1.18,16.69-11.55,30.66-21.41,36.14
			c11.75,2.88,29.26,13.4,30.67,33.34c1.72,24.28-17.85,43.3-44.29,45.17l-52.45,3.7c-2.38,0.17-4.26-1.66-4.42-3.83L410.81,415.09z
			 M466.17,471.08c11.05-0.78,18.03-9.99,17.26-20.82c-0.76-10.83-8.88-17.89-19.93-17.11l-23.19,1.64l2.67,37.93L466.17,471.08z
			 M473.61,533.29c10.84-0.77,18.91-9.83,18.11-21.1c-0.77-10.84-12.17-18.09-23.44-17.3l-23.62,1.67l2.72,38.58L473.61,533.29z"/>
		<path id="XMLID_00000014603498838984390520000010532632987235121850_" class="st2" d="M200.34,426.93
			c0.09-1.75,1.28-3.37,3.67-3.53l3.47-0.25c1.73-0.12,3.09,0.65,3.84,1.91l54.9,98.93c0.44-0.03,0.44-0.03,0.65-0.04l40.46-105.66
			c0.56-1.35,1.58-2.29,3.54-2.43l3.46-0.25c2.38-0.17,3.8,1.26,4.14,2.98l35.86,143.84c0.86,2.98-0.73,5.06-3.55,5.26l-19.72,1.39
			c-1.96,0.14-3.81-1.48-4.35-2.96l-18.58-81.24c-0.22,0.01-0.65,0.04-0.65,0.04l-31.92,87.86c-0.34,1.33-1.57,2.51-3.51,2.65
			l-3.91,0.28c-1.95,0.14-3.1-0.87-3.85-2.13l-44.38-82.47c0,0-0.42,0.03-0.64,0.05l-6.78,83.03c-0.11,1.53-1.72,3.39-3.67,3.53
			l-19.51,1.38c-2.82,0.2-4.69-1.63-4.47-4.7L200.34,426.93z"/>
		<path id="XMLID_00000036946546193633246440000013185058248415234214_" class="st2" d="M18.54,442.88
			c-0.15-2.17,1.45-4.24,3.83-4.41l88.21-6.22c2.39-0.17,4.26,1.66,4.42,3.82l1.25,17.77c0.15,2.17-1.45,4.24-3.83,4.41l-64.15,4.53
			l2.51,35.55l53.54-3.78c2.17-0.15,4.25,1.66,4.41,3.83l1.27,17.99c0.16,2.38-1.66,4.25-3.83,4.41l-53.54,3.78l2.68,37.92
			l64.15-4.53c2.38-0.17,4.25,1.66,4.41,3.83l1.26,17.77c0.15,2.16-1.45,4.24-3.83,4.41l-88.21,6.23c-2.38,0.17-4.26-1.66-4.42-3.83
			L18.54,442.88z"/>
	</g>
	<g id="_x5B_LEAF_x5D__00000140724230553426127200000006484742815784587162_">
		<path id="XMLID_00000027599848156950573070000005715986879086517403_" class="st2" d="M574.63,133.2
			c-2.44-4.45-5.16-8.82-8.08-13.12l-53.14,61.51l13.32,38.63l56.78-66.43C581.15,146.55,578.14,139.6,574.63,133.2z"/>
		<path id="XMLID_00000003814402151003338790000006037645359054987439_" class="st2" d="M537.01,85.1l-40.73,46.85l13.34,38.65
			l50.96-58.84C553.45,102.37,545.43,93.44,537.01,85.1z"/>
		<path id="XMLID_00000054231781797487451170000015630026977910480019_" class="st2" d="M458.11,67.57
			c-1.35-3.93,0.75-8.23,4.67-9.59c3.94-1.35,8.24,0.73,9.58,4.67l20.14,58.33l37.31-42.82c-38.24-35.6-80.98-58.81-80.98-58.81
			s-40.47,93.56-27.97,166.43c7.95,46.24,45.12,95.05,105.79,80.46L458.11,67.57z"/>
		<path id="XMLID_00000125581684840390447200000005776875484861248133_" class="st2" d="M530.54,231.24l10.5,30.46
			c44.49-17.69,53.85-59.12,45.7-96.14L530.54,231.24z"/>
		<path id="XMLID_00000043434734451525906130000009194970493513459628_" class="st2" d="M534.3,264.13c-2.6,0.83-5.14,1.5-7.65,2.11
			l28.2,81.91l14.22-4.89l-28.07-81.53C538.84,262.58,536.62,263.39,534.3,264.13z"/>
	</g>
</g>
<g id="ESS_x5F_Black" class="st0">
	<g id="_x5B_E_M_B_A_R_K_x5D_" class="st1">
		<path id="XMLID_96_" d="M931.43,379.1c-0.21-2.82,1.79-5.35,4.83-5.57l19.07-1.35c2.82-0.2,5.37,2.01,5.57,4.83l4.14,58.52
			l50.27-65.41c0.78-1.15,2.01-2.32,3.96-2.46l21.67-1.53c4.12-0.3,6.6,4.11,4.02,7.55l-52.08,67.71l65.82,68.32
			c2.36,2.67,0.97,7.55-3.37,7.86l-23.62,1.67c-2.17,0.15-3.54-0.62-4.02-1.24l-61.49-65.8l4.67,66.11c0.2,2.82-2.02,5.37-4.84,5.56
			l-19.07,1.35c-3.03,0.21-5.36-2.02-5.57-4.84L931.43,379.1z"/>
		<path id="XMLID_98_" d="M754.55,390.51c-0.15-2.17,1.45-4.24,3.83-4.41l61.99-4.38c26.01-1.83,48.72,17.47,50.53,43.26
			c1.41,19.94-10.66,37.13-28.98,46.04l33.57,52.96c1.72,2.71,0.45,6.29-3.24,6.55l-22.75,1.6c-1.96,0.13-3.11-0.87-3.61-1.71
			l-32.88-55.4l-24.05,1.7l3.89,55.27c0.15,2.17-1.65,4.25-3.83,4.41l-19.93,1.4c-2.38,0.17-4.26-1.66-4.42-3.82L754.55,390.51z
			 M822.86,451.03c11.49-0.81,20.76-11.48,19.9-23.62c-0.8-11.49-11.46-20.32-22.94-19.51l-35.33,2.49l3.05,43.13L822.86,451.03z"/>
		<path id="XMLID_101_" d="M567.15,546.42l57.1-150.62c0.55-1.34,1.57-2.51,3.52-2.64l2.17-0.15c2.17-0.15,3.11,0.87,3.86,2.13
			l77.04,141.15c1.5,2.72-0.03,5.67-3.28,5.9l-18.86,1.33c-3.25,0.23-4.86-0.97-6.59-3.89l-12.27-22.65l-64.81,4.57l-8.97,24.16
			c-0.72,2.22-2.51,4.53-5.98,4.78l-18.85,1.33C567.98,552.02,566.04,549.33,567.15,546.42z M657.51,493.64l-25.03-46.15l-0.65,0.04
			l-17.88,49.18L657.51,493.64z"/>
		<path id="XMLID_104_" d="M410.4,414.74c-0.15-2.17,1.45-4.24,3.83-4.41l49.63-3.51c25.8-1.82,46.96,14.11,48.56,36.87
			c1.18,16.69-11.55,30.66-21.41,36.14c11.75,2.88,29.26,13.4,30.67,33.34c1.72,24.28-17.85,43.3-44.29,45.17l-52.45,3.7
			c-2.38,0.17-4.26-1.66-4.42-3.83L410.4,414.74z M465.76,470.73c11.05-0.78,18.03-9.99,17.26-20.82
			c-0.76-10.83-8.88-17.89-19.93-17.11l-23.19,1.64l2.67,37.93L465.76,470.73z M473.2,532.93c10.84-0.77,18.91-9.83,18.11-21.1
			c-0.77-10.84-12.17-18.09-23.44-17.3l-23.62,1.67l2.72,38.58L473.2,532.93z"/>
		<path id="XMLID_108_" d="M199.92,426.57c0.09-1.75,1.28-3.37,3.67-3.53l3.47-0.25c1.73-0.12,3.09,0.65,3.84,1.91l54.9,98.93
			c0.44-0.03,0.44-0.03,0.65-0.04l40.46-105.66c0.56-1.35,1.58-2.29,3.54-2.43l3.46-0.25c2.38-0.17,3.8,1.26,4.14,2.98l35.86,143.84
			c0.86,2.98-0.73,5.06-3.55,5.26l-19.72,1.39c-1.96,0.14-3.81-1.48-4.35-2.96l-18.58-81.24c-0.22,0.01-0.65,0.04-0.65,0.04
			l-31.92,87.86c-0.34,1.33-1.57,2.51-3.51,2.65l-3.91,0.28c-1.95,0.14-3.1-0.87-3.85-2.13l-44.38-82.47c0,0-0.42,0.03-0.64,0.05
			l-6.78,83.03c-0.11,1.53-1.72,3.39-3.67,3.53l-19.51,1.38c-2.82,0.2-4.69-1.63-4.47-4.7L199.92,426.57z"/>
		<path id="XMLID_110_" d="M18.12,442.53c-0.15-2.17,1.45-4.24,3.83-4.41l88.21-6.22c2.39-0.17,4.26,1.66,4.42,3.82l1.25,17.77
			c0.15,2.17-1.45,4.24-3.83,4.41l-64.15,4.53l2.51,35.55l53.54-3.78c2.17-0.15,4.25,1.66,4.41,3.83l1.27,17.99
			c0.16,2.38-1.66,4.25-3.83,4.41l-53.54,3.78l2.68,37.92l64.15-4.53c2.38-0.17,4.25,1.66,4.41,3.83l1.26,17.77
			c0.15,2.16-1.45,4.24-3.83,4.41l-88.21,6.23c-2.38,0.17-4.26-1.66-4.42-3.83L18.12,442.53z"/>
	</g>
	<g id="_x5B_LEAF_x5D_" class="st1">
		<path id="XMLID_31_" d="M574.22,132.85c-2.44-4.45-5.16-8.82-8.08-13.12L513,181.24l13.32,38.63l56.78-66.43
			C580.74,146.19,577.73,139.25,574.22,132.85z"/>
		<path id="XMLID_30_" d="M536.6,84.75l-40.73,46.85l13.34,38.65l50.96-58.84C553.04,102.01,545.02,93.09,536.6,84.75z"/>
		<path id="XMLID_29_" d="M457.69,67.22c-1.35-3.93,0.75-8.23,4.67-9.59c3.94-1.35,8.24,0.73,9.58,4.67l20.14,58.33l37.31-42.82
			C491.15,42.2,448.41,19,448.41,19s-40.47,93.56-27.97,166.43c7.95,46.24,45.12,95.05,105.79,80.46L457.69,67.22z"/>
		<path id="XMLID_28_" d="M530.13,230.89l10.5,30.46c44.49-17.69,53.85-59.12,45.7-96.14L530.13,230.89z"/>
		<path id="XMLID_27_" d="M533.89,263.78c-2.6,0.83-5.14,1.5-7.65,2.11l28.2,81.91l14.22-4.89l-28.07-81.53
			C538.42,262.23,536.21,263.04,533.89,263.78z"/>
	</g>
</g>
</svg>
